<svg xmlns="http://www.w3.org/2000/svg" width="90" height="20" viewBox="0 0 90 20"><defs><style>.a{fill:#6101b5;}.b{fill:#f9bc08;}.c{fill:#fff;font-size:12px;font-family:SegoeUI, Segoe UI;}</style></defs><rect class="a" width="90" height="20" rx="10"/><g transform="translate(7 4)"><path class="b" d="M0,.75v6a.75.75,0,0,0,.75.75H3V0H.75A.75.75,0,0,0,0,.75Z" transform="translate(0 3)"/><path class="b" d="M6.865,3.75H4.649a.375.375,0,0,1-.328-.557L5.1,1.786A1.125,1.125,0,0,0,4.392.149L3.841.011a.374.374,0,0,0-.37.113L.481,3.446A1.874,1.874,0,0,0,0,4.7V8.625A1.877,1.877,0,0,0,1.875,10.5H5.606A1.879,1.879,0,0,0,7.414,9.12l.8-3.674a1.385,1.385,0,0,0-1.349-1.7Z" transform="translate(3.75 0)"/></g><text class="c" transform="translate(22 16)"><tspan x="0" y="0">Best Seller</tspan></text></svg>