<svg xmlns="http://www.w3.org/2000/svg" width="14" height="13.125" viewBox="0 0 14 13.125"><defs><style>.a{fill:#888;}</style></defs><path class="a" d="M14,4.375V2.582a1.306,1.306,0,0,0-1.23-1.367h-.164V2.886a.412.412,0,1,1-.82,0V.456a.412.412,0,1,0-.82,0v.76H8.23V2.886a.412.412,0,1,1-.82,0V.456a.412.412,0,1,0-.82,0v.76H3.855V2.886a.435.435,0,0,1-.41.456.435.435,0,0,1-.41-.456V.456A.435.435,0,0,0,2.625,0a.435.435,0,0,0-.41.456v.76H1.23A1.306,1.306,0,0,0,0,2.582V4.375Z"/><path class="a" d="M1.23,7.875A1.231,1.231,0,0,1,0,6.645V0H14V6.645a1.232,1.232,0,0,1-1.231,1.23Z" transform="translate(0 5.25)"/></svg>