<svg xmlns="http://www.w3.org/2000/svg" width="77.002" height="17" viewBox="0 0 77.002 17"><defs><style>.a,.b{fill:#f94c08;}.a{font-size:13px;font-family:SegoeUI, Segoe UI;}</style></defs><text class="a" transform="translate(77.002 14)"><tspan x="-59.706" y="0">Flash Sale!</tspan></text><path class="b" d="M7.965,5.391a.265.265,0,0,0-.233-.149H4.218L4.807.325A.3.3,0,0,0,4.629.017a.258.258,0,0,0-.316.117L.04,8.312a.316.316,0,0,0-.006.3.265.265,0,0,0,.234.15H3.729l-.467,4.924a.3.3,0,0,0,.184.3.259.259,0,0,0,.313-.122l4.2-8.177a.317.317,0,0,0,0-.295Z" transform="translate(0 1.968)"/></svg>