<svg xmlns="http://www.w3.org/2000/svg" width="100" height="89.767" viewBox="0 0 100 89.767"><defs><style>.a{fill:#3f3d56;}.b{fill:#e6e6e6;}.c{fill:#ff551f;}.d{fill:#fff;}</style></defs><path class="a" d="M98.07,34.329a.175.175,0,0,1-.1-.031L49.451.507a.88.88,0,0,0-1.005,0L.276,34.3a.175.175,0,1,1-.2-.287L48.244.222a1.232,1.232,0,0,1,1.407,0L98.17,34.009a.175.175,0,0,1-.1.319Z" transform="translate(1.053 0)"/><path class="b" d="M0,34.067,45.967,0,92.283,36.491,48.335,62.544l-23.86-5.439L0,34.067Z" transform="translate(4.081 1.459)"/><path class="c" d="M23.771,2.122H1.062A1.061,1.061,0,1,1,1.062,0H23.771a1.061,1.061,0,1,1,0,2.122Z" transform="translate(6.8 77.973)"/><path class="c" d="M9.21,2.122H1.062A1.061,1.061,0,1,1,1.062,0H9.21a1.061,1.061,0,1,1,0,2.122Z" transform="translate(6.8 73.412)"/><path class="d" d="M28.853,49.91a1.327,1.327,0,0,1-.5-.1L0,38.048V1.228A1.23,1.23,0,0,1,1.228,0H55.614a1.23,1.23,0,0,1,1.228,1.228V38.074l-.053.023L29.371,49.805a1.336,1.336,0,0,1-.519.1Z" transform="translate(21.842 4.592)"/><path class="a" d="M28.4,49.98,0,38.194V1.316A1.317,1.317,0,0,1,1.316,0H55.7a1.317,1.317,0,0,1,1.316,1.316v36.9L29.493,49.973a1.42,1.42,0,0,1-.553.112A1.4,1.4,0,0,1,28.4,49.98Z" transform="translate(21.754 4.504)"/><path class="a" d="M1.229,55.789A1.229,1.229,0,0,1,0,54.562V1.229A1.23,1.23,0,0,1,1.229,0h.035L1.3.014,21.929,8.575l28.43,11.8a.893.893,0,0,0,.681,0L78.6,8.6,98.737,0h.035A1.229,1.229,0,0,1,100,1.229V54.562a1.229,1.229,0,0,1-1.228,1.228Z" transform="translate(0 33.978)"/><path class="c" d="M15.789,35.378a4.824,4.824,0,0,1-2.9-.964l-.052-.039L1.9,26a4.857,4.857,0,0,1,5.908-7.71l7.081,5.429L31.624,1.9A4.857,4.857,0,0,1,38.434,1l-.1.141L38.436,1a4.862,4.862,0,0,1,.9,6.809L19.653,33.482a4.859,4.859,0,0,1-3.864,1.9Z" transform="translate(34.622 8.683)"/></svg>