<svg xmlns="http://www.w3.org/2000/svg" width="24" height="24" viewBox="0 0 24 24"><defs><style>.a{fill:#f94c08;}</style></defs><g transform="translate(0)"><path class="a" d="M14.923,1.678,13.664,0l-.7,4.9a2.122,2.122,0,0,1-.6,1.193L3.75,14.71A3.957,3.957,0,0,1,.933,15.876,4.021,4.021,0,0,1,0,15.766a2.578,2.578,0,0,0,2.173,1.193H12.485a2.581,2.581,0,0,0,2.578-2.578V2.1A.7.7,0,0,0,14.923,1.678Z" transform="translate(8.936 7.041)"/><path class="a" d="M8.046,20.756.754,13.464a2.581,2.581,0,0,1,0-3.646L9.372,1.2a.7.7,0,0,1,.4-.2L16.73.007a.7.7,0,0,1,.6.2L18.818,1.7,16.83,3.686l-.5-.5a.7.7,0,1,0-.995.994l1.989,1.989a.7.7,0,0,0,.994-.995l-.5-.5,1.989-1.989L21.3,4.183a.7.7,0,0,1,.2.6l-.994,6.961a.7.7,0,0,1-.2.4l-8.618,8.618a2.58,2.58,0,0,1-3.646,0Z" transform="translate(0 0)"/><path class="a" d="M2.486,1.2A.7.7,0,0,0,1.492.206L0,1.7l.994.994Z" transform="translate(18.818 0)"/></g></svg>