<svg xmlns="http://www.w3.org/2000/svg" width="277" height="49" viewBox="0 0 277 49"><defs><style>.a{fill:#f94c08;stroke:#f94c08;stroke-miterlimit:10;}.b,.c{fill:#fff;}.b{font-size:18px;font-family:SegoeUI, Segoe UI;}.d{stroke:none;}.e{fill:none;}</style></defs><g class="a"><rect class="d" width="277" height="49" rx="4"/><rect class="e" x="0.5" y="0.5" width="276" height="48" rx="3.5"/></g><g transform="translate(80 13)"><text class="b" transform="translate(31 19)"><tspan x="0" y="0">Book Now</tspan></text><g transform="translate(0 4)"><path class="c" d="M0,15V0H14.766A1.476,1.476,0,0,1,16,1.63V4.762a.992.992,0,0,1-.134.507l-.226.376a3.7,3.7,0,0,0,.01,3.693l.213.35A.991.991,0,0,1,16,10.2V13.37A1.476,1.476,0,0,1,14.766,15Z" transform="translate(5)"/><path class="c" d="M1.295,0A1.493,1.493,0,0,0,0,1.63V13.37A1.493,1.493,0,0,0,1.295,15H4V0Z"/></g></g></svg>