<svg xmlns="http://www.w3.org/2000/svg" width="87" height="20" viewBox="0 0 87 20"><defs><style>.a{fill:#f94c08;}.b,.c{fill:#fff;}.b{font-size:12px;font-family:SegoeUI, Segoe UI;}</style></defs><rect class="a" width="87" height="20" rx="10"/><text class="b" transform="translate(21 16)"><tspan x="0" y="0">Top Rated</tspan></text><path class="c" d="M4.9.366,3.561,3.083l-3,.437A.657.657,0,0,0,.2,4.64L2.368,6.754,1.855,9.74a.656.656,0,0,0,.952.692L5.49,9.022l2.682,1.41a.657.657,0,0,0,.952-.692L8.611,6.754,10.78,4.64a.657.657,0,0,0-.363-1.121l-3-.437L6.079.366A.657.657,0,0,0,4.9.366Z" transform="translate(7 4)"/></svg>